name C:\Users\Nicos\Documents\OpenSimProjects\SprintingProject\Study1\PredictiveResults\IC_pred_Sprinting_optimum_26-October-2023__20-13-02___IKTD_Plus_6_p02_maxVel_01.mot
datacolumns 38
datarows 15
range 0.21322616 0.22723871
endheader
                time	/jointset/ground_pelvis/pelvis_tilt/value	/jointset/ground_pelvis/pelvis_list/value	/jointset/ground_pelvis/pelvis_rotation/value	/jointset/ground_pelvis/pelvis_tx/value	/jointset/ground_pelvis/pelvis_ty/value	/jointset/ground_pelvis/pelvis_tz/value	/jointset/hip_r/hip_flexion_r/value	/jointset/hip_r/hip_adduction_r/value	/jointset/hip_r/hip_rotation_r/value	/jointset/knee_r/knee_angle_r/value	/jointset/ankle_r/ankle_angle_r/value	/jointset/subtalar_r/subtalar_angle_r/value	/jointset/mtp_r/mtp_angle_r/value	/jointset/hip_l/hip_flexion_l/value	/jointset/hip_l/hip_adduction_l/value	/jointset/hip_l/hip_rotation_l/value	/jointset/knee_l/knee_angle_l/value	/jointset/ankle_l/ankle_angle_l/value	/jointset/subtalar_l/subtalar_angle_l/value	/jointset/mtp_l/mtp_angle_l/value	/jointset/back/lumbar_extension/value	/jointset/back/lumbar_bending/value	/jointset/back/lumbar_rotation/value	/jointset/acromial_r/arm_flex_r/value	/jointset/acromial_r/arm_add_r/value	/jointset/acromial_r/arm_rot_r/value	/jointset/elbow_r/elbow_flex_r/value	/jointset/radioulnar_r/pro_sup_r/value	/jointset/radius_hand_r/wrist_flex_r/value	/jointset/radius_hand_r/wrist_dev_r/value	/jointset/acromial_l/arm_flex_l/value	/jointset/acromial_l/arm_add_l/value	/jointset/acromial_l/arm_rot_l/value	/jointset/elbow_l/elbow_flex_l/value	/jointset/radioulnar_l/pro_sup_l/value	/jointset/radius_hand_l/wrist_flex_l/value	/jointset/radius_hand_l/wrist_dev_l/value	
          0.21322616	         -3.08685352	          4.85529818	        -15.42502122	          1.85238509	          0.99951152	          0.31674563	         -4.25393085	        -13.84884575	          8.48514858	        -86.27155856	        -24.29238938	        -14.17337892	        -10.09889664	         57.62125769	         -9.06548682	         -3.91303668	        -44.01194278	        -19.05952162	        -24.60085564	          8.48251101	        -22.39328492	        -10.04681479	         11.04567578	         64.08180695	        -12.81143854	         -1.67014151	        105.70669497	         83.76325997	         -9.70041862	          6.38369106	        -56.07397626	        -10.41951106	        -10.94365740	         59.25229399	         66.12934372	        -29.78990605	          5.94062327	
          0.21470905	         -3.06084807	          4.81178289	        -15.12068989	          1.86987590	          1.00024658	          0.31666370	         -3.93949088	        -13.76717368	          8.20083508	        -87.21885943	        -23.92021496	        -14.25428541	        -10.19037901	         56.84190701	         -8.66553876	         -3.58662386	        -42.75208122	        -19.51683772	        -25.17347445	          8.02230284	        -22.48774420	        -10.06313385	         11.01888484	         62.47047048	        -13.47206619	         -2.19131175	        105.04370652	         83.46578679	         -9.88989559	          6.33796950	        -55.38436654	        -11.07130374	        -11.17878294	         59.99674591	         66.08059606	        -29.69359138	          5.89490665	
          0.21470905	         -3.06084807	          4.81178289	        -15.12068989	          1.86987590	          1.00024658	          0.31666370	         -3.93949088	        -13.76717368	          8.20083508	        -87.21885943	        -23.92021496	        -14.25428541	        -10.19037901	         56.84190701	         -8.66553876	         -3.58662386	        -42.75208122	        -19.51683772	        -25.17347445	          8.02230284	        -22.48774420	        -10.06313385	         11.01888484	         62.47047048	        -13.47206619	         -2.19131175	        105.04370652	         83.46578679	         -9.88989559	          6.33796950	        -55.38436654	        -11.07130374	        -11.17878294	         59.99674591	         66.08059606	        -29.69359138	          5.89490665	
          0.21535663	         -3.05267251	          4.79340355	        -14.98166927	          1.87752710	          1.00055691	          0.31662039	         -3.79737858	        -13.73132242	          8.07099537	        -87.63143073	        -23.75591578	        -14.29257236	        -10.22667091	         56.50453057	         -8.48688056	         -3.43558819	        -42.21486795	        -19.71137854	        -25.42867502	          7.83795024	        -22.52367304	        -10.06834596	         11.00604044	         61.74943100	        -13.76066062	         -2.44161591	        104.74271929	         83.33014824	         -9.97574709	          6.31800226	        -55.07905565	        -11.35907924	        -11.29122955	         60.34063391	         66.06464606	        -29.64985020	          5.87494100	
          0.21740271	         -3.04040088	          4.73740964	        -14.51898551	          1.90175323	          1.00149326	          0.31645366	         -3.32795100	        -13.61726121	          7.63994762	        -88.93076465	        -23.22715335	        -14.41906264	        -10.32797325	         55.45117511	         -7.90938434	         -2.92749564	        -40.56920374	        -20.30815676	        -26.25018533	          7.33472038	        -22.61523984	        -10.07719257	         10.96229396	         59.40013202	        -14.67268741	         -3.31843685	        103.75190387	         82.88232925	        -10.25896392	          6.25491275	        -54.09117661	        -12.27018885	        -11.70711388	         61.48698238	         66.03680013	        -29.50483233	          5.81184978	
          0.21888560	         -3.04421276	          4.69791569	        -14.16235447	          1.91935825	          1.00212983	          0.31630367	         -2.96813960	        -13.53367394	          7.30934592	        -89.86856068	        -22.83374480	        -14.51201494	        -10.38668036	         54.69926779	         -7.48118784	         -2.53327961	        -39.42488899	        -20.72607923	        -26.85542785	          7.05227189	        -22.66152645	        -10.07530118	         10.92807731	         57.63322696	        -15.33340902	         -4.02160251	        102.99758288	         82.54175437	        -10.47444639	          6.20919052	        -53.34491259	        -12.93115024	        -12.05436510	         62.35505539	         66.03784709	        -29.39315251	          5.76613359	
          0.21888560	         -3.04421276	          4.69791569	        -14.16235447	          1.91935825	          1.00212983	          0.31630367	         -2.96813960	        -13.53367394	          7.30934592	        -89.86856068	        -22.83374480	        -14.51201494	        -10.38668036	         54.69926779	         -7.48118784	         -2.53327961	        -39.42488899	        -20.72607923	        -26.85542785	          7.05227189	        -22.66152645	        -10.07530118	         10.92807731	         57.63322696	        -15.33340902	         -4.02160251	        102.99758288	         82.54175437	        -10.47444639	          6.20919052	        -53.34491259	        -12.93115024	        -12.05436510	         62.35505539	         66.03784709	        -29.39315251	          5.76613359	
          0.21953318	         -3.04917324	          4.68070870	        -14.00126428	          1.92705834	          1.00239670	          0.31623023	         -2.80577788	        -13.49687529	          7.16059416	        -90.27711538	        -22.65903959	        -14.55204843	        -10.40809662	         54.37381066	         -7.29236658	         -2.35519472	        -38.93771154	        -20.90532058	        -27.12109178	          6.95200656	        -22.67666410	        -10.07199491	         10.91263196	         56.84566764	        -15.62201485	         -4.34250667	        102.65898227	         82.38955493	        -10.57090321	          6.18922318	        -53.00892270	        -13.21977609	        -12.21468894	         62.73911019	         66.04389474	        -29.34261218	          5.74616762	
          0.22157927	         -3.07608371	          4.62529516	        -13.47199274	          1.95143201	          1.00319746	          0.31596514	         -2.27341565	        -13.37950706	          6.67451767	        -91.56411851	        -22.09513307	        -14.67366768	        -10.45495651	         53.35462200	         -6.69108659	         -1.77296007	        -37.44729668	        -21.46103981	        -27.96172318	          6.73162245	        -22.70727033	        -10.05035947	         10.86164703	         54.30186507	        -16.53401040	         -5.39270636	        101.55062506	         81.89326864	        -10.88446758	          6.12613400	        -51.89892245	        -14.13171649	        -12.73853402	         63.95461188	         66.08577823	        -29.17575217	          5.68307577	
          0.22306215	         -3.10501349	          4.58379378	        -13.07042370	          1.96913496	          1.00373754	          0.31574142	         -1.86955113	        -13.29406613	          6.30851177	        -92.49370784	        -21.67538391	        -14.75751875	        -10.47106443	         52.62298730	         -6.25318158	         -1.33769462	        -36.41198824	        -21.85509577	        -28.56644969	          6.65922879	        -22.71493158	        -10.02391992	         10.82257567	         52.41264406	        -17.19480505	         -6.17189966	        100.70969892	         81.52066416	        -11.11891476	          6.08041101	        -51.04568370	        -14.79263992	        -13.12103094	         64.83595904	         66.13828419	        -29.04789956	          5.63736043	
          0.22306215	         -3.10501349	          4.58379378	        -13.07042370	          1.96913496	          1.00373754	          0.31574142	         -1.86955113	        -13.29406613	          6.30851177	        -92.49370784	        -21.67538391	        -14.75751875	        -10.47106443	         52.62298730	         -6.25318158	         -1.33769462	        -36.41198824	        -21.85509577	        -28.56644969	          6.65922879	        -22.71493158	        -10.02391992	         10.82257567	         52.41264406	        -17.19480505	         -6.17189966	        100.70969892	         81.52066416	        -11.11891476	          6.08041101	        -51.04568370	        -14.79263992	        -13.12103094	         64.83595904	         66.13828419	        -29.04789956	          5.63736043	
          0.22370973	         -3.11984747	          4.56523475	        -12.89065458	          1.97687487	          1.00396272	          0.31563537	         -1.68846858	        -13.25682362	          6.14546720	        -92.89896960	        -21.48922632	        -14.79315530	        -10.47399869	         52.30495129	         -6.06198983	         -1.14551445	        -35.97128968	        -22.02513214	        -28.82750230	          6.64893883	        -22.71487384	        -10.00951422	         10.80494677	         51.57740256	        -17.48329251	         -6.51266547	        100.33231707	         81.35540777	        -11.22281751	          6.06044459	        -50.65955800	        -15.08121510	        -13.28545469	         65.22078847	         66.16712409	        -28.99021040	          5.61739449	
          0.22575582	         -3.17507562	          4.50481752	        -12.30674044	          2.00136106	          1.00462996	          0.31526721	         -1.09653481	        -13.14023212	          5.61948646	        -94.17754777	        -20.89052045	        -14.90420109	        -10.47399748	         51.30520171	         -5.46069904	         -0.53620020	        -34.62273655	        -22.55522311	        -29.63421875	          6.69174903	        -22.70182801	         -9.95278077	         10.74745972	         48.90419034	        -18.39561333	         -7.57286530	         99.09904355	         80.81032517	        -11.55854055	          5.99735580	        -49.38392528	        -15.99310433	        -13.78026118	         66.43910370	         66.28371951	        -28.80045278	          5.55430215	
          0.22723871	         -3.22339220	          4.45955524	        -11.86989063	          2.01913264	          1.00506911	          0.31496989	         -0.64703701	        -13.05747290	          5.22983746	        -95.10325776	        -20.44741002	        -14.98596950	        -10.46803226	         50.58563152	         -5.02974673	         -0.09885393	        -33.68523075	        -22.93227001	        -30.19436827	          6.77450658	        -22.67983368	         -9.90134932	         10.70406852	         46.93994246	        -19.05564784	         -8.31212165	         98.16658309	         80.39298989	        -11.80832510	          5.95163365	        -48.40478295	        -16.65403290	        -14.10289752	         67.32465108	         66.39282269	        -28.65575275	          5.50858786	
          0.22723871	         -3.22339220	          4.45955524	        -11.86989063	          2.01913264	          1.00506911	          0.31496989	         -0.64703701	        -13.05747290	          5.22983746	        -95.10325776	        -20.44741002	        -14.98596950	        -10.46803226	         50.58563152	         -5.02974673	         -0.09885393	        -33.68523075	        -22.93227001	        -30.19436827	          6.77450658	        -22.67983368	         -9.90134932	         10.70406852	         46.93994246	        -19.05564784	         -8.31212165	         98.16658309	         80.39298989	        -11.80832510	          5.95163365	        -48.40478295	        -16.65403290	        -14.10289752	         67.32465108	         66.39282269	        -28.65575275	          5.50858786	
